{"title":"The Smurfs 2 2013 R5DVDrip x264 Ac3-MiLLiENiUM [P2PDL]","uid":9164274,"size":1903955846,"categoryP":"video","categoryS":"movies","magnet":"?xt=urn:btih:7b443770655d2dd866ad03561a70ac0cacecffdc&amp;dn=The+Smurfs+2+2013+R5DVDrip+x264+Ac3-MiLLiENiUM+%5BP2PDL%5D&amp;tr=udp%3A%2F%2Ftracker.openbittorrent.com%3A80&amp;tr=udp%3A%2F%2Fopen.demonii.com%3A1337&amp;tr=udp%3A%2F%2Ftracker.coppersurfer.tk%3A6969&amp;tr=udp%3A%2F%2Fexodus.desync.com%3A6969","seeders":3,"leechers":0,"uploader":"TeX","files":3,"time":1383939102,"description":"General &lt;a href=&quot;\nhttp://www.imdb.com/title/tt2017020/&quot; rel=&quot;nofollow&quot; target=&quot;_NEW&quot;&gt;\nhttp://www.imdb.com/title/tt2017020/&lt;/a&gt;\nUnique ID                                : 194300850862657060887303408765955231544 (0x922CFB918C3324B2850298134E7C4F38)\nComplete name                            : Smurfs 2 2013 R5DVDrip x264 Ac3-MiLLiENiUM.mkv\nSource                                   : R5 DVDrip [thanks]\nFormat                                   : Matroska\nFormat version                           : Version 4 / Version 2\nFile size                                : 1.73 GiB\nDuration                                 : 1h 40mn\nOverall bit rate                         : 2 471 Kbps\nEncoded date                             : UTC 2013-11-08 18:10:01\nWriting application                      : mkvmerge v6.0.0 ('Coming Up For Air') built on Jan 20 2013 09:52:00\nWriting library                          : libebml v1.3.0 + libmatroska v1.4.0\n\nVideo\nID                                       : 1\nFormat                                   : MPEG-4 Visual\nFormat profile                           : Advanced Simple@L5\nFormat settings, BVOP                    : Yes\nFormat settings, QPel                    : No\nFormat settings, GMC                     : No warppoints\nFormat settings, Matrix                  : Default (MPEG)\nCodec ID                                 : XVID\nCodec ID/Hint                            : XviD\nDuration                                 : 1h 40mn\nBit rate                                 : 1 974 Kbps\nWidth                                    : 720 pixels\nHeight                                   : 384 pixels\nDisplay aspect ratio                     : 1.875\nFrame rate                               : 25.000 fps\nColor space                              : YUV\nChroma subsampling                       : 4:2:0\nBit depth                                : 8 bits\nScan type                                : Progressive\nCompression mode                         : Lossy\nBits/(Pixel*Frame)                       : 0.286\nStream size                              : 1.38 GiB (80%)\nWriting library                          : XviD 73\nDefault                                  : Yes\nForced                                   : No\n\nAudio\nID                                       : 2\nFormat                                   : AC-3\nFormat/Info                              : Audio Coding 3\nMode extension                           : CM (complete main)\nCodec ID                                 : A_AC3\nDuration                                 : 1h 40mn\nBit rate mode                            : Constant\nBit rate                                 : 448 Kbps\nChannel(s)                               : 6 channels\nChannel positions                        : Front: L C R, Side: L R, LFE\nSampling rate                            : 48.0 KHz\nBit depth                                : 16 bits\nCompression mode                         : Lossy\nStream size                              : 322 MiB (18%)\nDefault                                  : Yes\nForced                                   : No\n\nScreens : &lt;a href=&quot;\nhttp://s24.postimg.org/eue4nxj3p/Smurfs_2_2013_R5_DVDrip_x265_Ac2_Mi_LLi_ENi_UM_mkv_s.png&quot; rel=&quot;nofollow&quot; target=&quot;_NEW&quot;&gt;\nhttp://s24.postimg.org/eue4nxj3p/Smurfs_2_2013_R5_DVDrip_x265_Ac2_Mi_LLi_ENi_UM_mkv_s.png&lt;/a&gt; &lt;a href=&quot;\nhttp://s24.postimg.org/l6t9xrm5x/Smurfs_2_2013_R5_DVDrip_x265_Ac2_Mi_LLi_ENi_UM_mkv_s.png&quot; rel=&quot;nofollow&quot; target=&quot;_NEW&quot;&gt;\nhttp://s24.postimg.org/l6t9xrm5x/Smurfs_2_2013_R5_DVDrip_x265_Ac2_Mi_LLi_ENi_UM_mkv_s.png&lt;/a&gt; &lt;a href=&quot;\nhttp://s24.postimg.org/jcgfg0z5h/Smurfs_2_2013_R5_DVDrip_x265_Ac2_Mi_LLi_ENi_UM_mkv_s.png&quot; rel=&quot;nofollow&quot; target=&quot;_NEW&quot;&gt;\nhttp://s24.postimg.org/jcgfg0z5h/Smurfs_2_2013_R5_DVDrip_x265_Ac2_Mi_LLi_ENi_UM_mkv_s.png&lt;/a&gt;","torrent":{"xt":"urn:btih:7b443770655d2dd866ad03561a70ac0cacecffdc","amp;dn":"The+Smurfs+2+2013+R5DVDrip+x264+Ac3-MiLLiENiUM+%5BP2PDL%5D","amp;tr":["udp%3A%2F%2Ftracker.openbittorrent.com%3A80","udp%3A%2F%2Fopen.demonii.com%3A1337","udp%3A%2F%2Ftracker.coppersurfer.tk%3A6969","udp%3A%2F%2Fexodus.desync.com%3A6969"],"infoHash":"7b443770655d2dd866ad03561a70ac0cacecffdc","infoHashBuffer":{"type":"Buffer","data":[123,68,55,112,101,93,45,216,102,173,3,86,26,112,172,12,172,236,255,220]},"announce":[],"urlList":[]}}